<svg width="249" height="40" viewBox="0 0 249 40" fill="none" xmlns="http://www.w3.org/2000/svg">
<path d="M20.3378 12.1281H28.4196V38.798H20.3378V37.8382C20.3378 37.0806 20.5903 36.4239 20.9439 35.6663C21.348 34.8076 21.8026 33.9489 21.0449 33.6963C20.5398 33.5448 20.2873 34.1004 20.1357 34.4035C18.5194 37.6362 15.7413 39.6061 11.7509 39.6061C4.42675 39.6061 0.133301 33.3428 0.133301 25.463C0.133301 17.5833 4.42675 11.3199 11.7509 11.3199C15.7918 11.3199 18.4183 13.4414 20.1357 16.472C20.3378 16.8256 20.6913 17.5328 21.2975 17.2297C21.9541 16.9266 21.2975 16.0174 20.8934 15.1587C20.5398 14.4516 20.3378 13.6939 20.3378 12.9362V12.1281ZM14.0744 32.7366C17.9132 32.7366 20.3378 29.3524 20.3378 25.463C20.3378 21.5737 17.9132 18.1894 14.0744 18.1894C10.0335 18.1894 8.21509 21.5737 8.21509 25.463C8.21509 29.3524 10.0335 32.7366 14.0744 32.7366Z" fill="#041026"/>
<path d="M31.2588 29.5039H39.2396C39.2901 31.5749 40.5024 33.5448 44.3412 33.5448C47.8265 33.5448 49.0388 32.4841 49.0388 31.1203C49.0388 29.5039 46.6142 29.0493 42.1187 28.5442C32.8247 27.4835 32.067 22.7859 32.067 20.0078C32.067 15.5123 36.3099 11.3199 44.2907 11.3199C50.7056 11.3199 55.9083 14.2495 56.3124 20.6139H48.3316C48.2306 18.644 47.0688 17.3812 44.1392 17.3812C41.26 17.3812 40.1488 18.3409 40.1488 19.6542C40.1488 20.5634 40.7044 21.4221 45.0989 21.8262C52.4735 22.5334 57.1206 24.8569 57.1206 30.6151C57.1206 35.7168 52.2715 39.6061 44.1392 39.6061C35.9564 39.6061 31.6124 35.7673 31.2588 29.5039Z" fill="#041026"/>
<path d="M77.7358 18.5935H70.4622V29.7059C70.4622 32.2315 70.5632 32.3325 72.8867 32.3325H77.7358V38.798H70.2602C64.906 38.798 62.3804 37.0301 62.3804 30.6151V18.5935H57.5313V12.1281H62.3804V3.23778H70.4622V12.1281H77.7358V18.5935Z" fill="#041026"/>
<path d="M88.7891 17.8358C89.2437 17.9368 89.4962 17.4823 89.6478 17.1287C91.2136 13.5929 92.7289 11.724 99.1439 11.724V19.5027C91.8197 18.9976 89.4457 21.6747 89.4457 28.4432V38.798H81.3639V12.1281H89.4457V13.3403C89.4457 14.2495 89.1427 15.1587 88.7386 15.9669C88.3345 16.7751 88.0314 17.6843 88.7891 17.8358Z" fill="#041026"/>
<path d="M119.979 12.1281H128.061V38.798H119.979V37.8382C119.979 37.0806 120.231 36.4239 120.585 35.6663C120.989 34.8076 121.444 33.9489 120.686 33.6963C120.181 33.5448 119.928 34.1004 119.777 34.4035C118.161 37.6362 115.382 39.6061 111.392 39.6061C104.068 39.6061 99.7745 33.3428 99.7745 25.463C99.7745 17.5833 104.068 11.3199 111.392 11.3199C115.433 11.3199 118.06 13.4414 119.777 16.472C119.979 16.8256 120.333 17.5328 120.939 17.2297C121.595 16.9266 120.939 16.0174 120.535 15.1587C120.181 14.4516 119.979 13.6939 119.979 12.9362V12.1281ZM113.716 32.7366C117.554 32.7366 119.979 29.3524 119.979 25.463C119.979 21.5737 117.554 18.1894 113.716 18.1894C109.675 18.1894 107.856 21.5737 107.856 25.463C107.856 29.3524 109.675 32.7366 113.716 32.7366Z" fill="#041026"/>
<path d="M130.505 25.463C130.505 17.6843 135.708 11.3199 144.851 11.3199C152.932 11.3199 157.579 16.8761 157.983 22.6849L150.003 22.7354C149.548 20.2604 147.831 18.1894 144.901 18.1894C141.012 18.1894 138.587 21.5231 138.587 25.463C138.587 29.4029 141.012 32.7366 144.901 32.7366C147.831 32.7366 149.548 30.6152 150.003 28.1401L157.983 28.1906C157.579 33.9994 152.983 39.6061 144.851 39.6061C135.86 39.6061 130.505 33.2417 130.505 25.463Z" fill="#041026"/>
<path d="M173.949 11.3199C182.738 11.3199 188.092 17.6843 188.092 25.463C188.092 33.2417 182.738 39.6061 173.949 39.6061C165.16 39.6061 159.806 33.2417 159.806 25.463C159.806 17.6843 165.16 11.3199 173.949 11.3199ZM173.949 32.7366C177.939 32.7366 180.01 29.4029 180.01 25.463C180.01 21.5231 177.939 18.1894 173.949 18.1894C169.959 18.1894 167.888 21.5231 167.888 25.463C167.888 29.4029 169.959 32.7366 173.949 32.7366Z" fill="#041026"/>
<path d="M210.297 0H218.379V38.798H210.297V37.8382C210.297 37.0806 210.55 36.4239 210.903 35.6663C211.307 34.8076 211.762 33.9489 211.004 33.6963C210.499 33.5448 210.247 34.1004 210.095 34.4035C208.479 37.6362 205.701 39.6061 201.71 39.6061C194.386 39.6061 190.093 33.3428 190.093 25.463C190.093 17.5833 194.386 11.3199 201.71 11.3199C205.751 11.3199 208.378 13.4414 210.095 16.472C210.297 16.8256 210.651 17.5328 211.257 17.2297C211.914 16.9266 211.257 16.0174 210.853 15.1587C210.499 14.4516 210.297 13.6939 210.297 12.9362V0ZM204.034 32.7366C207.873 32.7366 210.297 29.3524 210.297 25.463C210.297 21.5737 207.873 18.1894 204.034 18.1894C199.993 18.1894 198.175 21.5737 198.175 25.463C198.175 29.3524 199.993 32.7366 204.034 32.7366Z" fill="#041026"/>
<path d="M248.333 24.6548C248.333 25.4125 248.251 26.7258 248.15 27.4835H228.804C229.36 30.8677 231.633 33.1407 235.017 33.1407C237.543 33.1407 239.109 31.8779 239.765 29.908H247.797C246.736 34.9591 242.594 39.6061 235.068 39.6061C225.774 39.6061 220.824 33.3428 220.824 25.463C220.824 17.1792 225.976 11.3199 234.916 11.3199C241.685 11.3199 248.333 15.4618 248.333 24.6548ZM235.068 17.5833C231.229 17.5833 229.613 19.7553 229.006 22.6344H240.372C240.068 19.4017 238.048 17.5833 235.068 17.5833Z" fill="#041026"/>
</svg>
